<?xml version="1.0" encoding="UTF-8" standalone="no"?>
<svg xmlns:dc="http://purl.org/dc/elements/1.1/" xmlns:cc="http://web.resource.org/cc/" xmlns:rdf="http://www.w3.org/1999/02/22-rdf-syntax-ns#" xmlns:svg="http://www.w3.org/2000/svg" xmlns="http://www.w3.org/2000/svg" xmlns:xlink="http://www.w3.org/1999/xlink" xmlns:sodipodi="http://sodipodi.sourceforge.net/DTD/sodipodi-0.dtd" xmlns:inkscape="http://www.inkscape.org/namespaces/inkscape" width="583.66138" height="583.66138" version="1.0" id="svg2" sodipodi:version="0.32" inkscape:version="0.45" sodipodi:docname="Red_copyright.svg" sodipodi:docbase="/Users/richardthompson/Desktop" inkscape:output_extension="org.inkscape.output.svg.inkscape" sodipodi:modified="true">
  <metadata id="metadata17">
    <rdf:RDF>
      <cc:Work rdf:about="">
        <dc:format>image/svg+xml</dc:format>
        <dc:type rdf:resource="http://purl.org/dc/dcmitype/StillImage"/>
      </cc:Work>
    </rdf:RDF>
  </metadata>
  <defs id="defs15">
    <linearGradient id="linearGradient3336">
      <stop id="stop3338" offset="0" style="stop-color:#c791c7;stop-opacity:0;"/>
      <stop style="stop-color:#a9acd5;stop-opacity:0.58431373;" offset="0.25" id="stop3346"/>
      <stop style="stop-color:#8cc8e3;stop-opacity:0.7215687;" offset="0.5" id="stop3342"/>
      <stop id="stop3344" offset="0.75" style="stop-color:#d4dfaa;stop-opacity:0.85882354;"/>
      <stop style="stop-color:#e98f8c;stop-opacity:0.60416669;" offset="0.875" id="stop3348"/>
      <stop id="stop3340" offset="1" style="stop-color:#ff3f6f;stop-opacity:0;"/>
    </linearGradient>
    <linearGradient id="linearGradient3324">
      <stop style="stop-color:#c7c7c7;stop-opacity:1;" offset="0" id="stop3326"/>
      <stop style="stop-color:#ffffff;stop-opacity:1;" offset="1" id="stop3328"/>
    </linearGradient>
    <linearGradient id="linearGradient3316">
      <stop style="stop-color:#ad000a;stop-opacity:1;" offset="0" id="stop3318"/>
      <stop style="stop-color:#a0cae4;stop-opacity:0;" offset="1" id="stop3320"/>
    </linearGradient>
    <linearGradient inkscape:collect="always" id="linearGradient3299">
      <stop style="stop-color:#000000;stop-opacity:1;" offset="0" id="stop3301"/>
      <stop style="stop-color:#000000;stop-opacity:0;" offset="1" id="stop3303"/>
    </linearGradient>
    <linearGradient id="linearGradient3218">
      <stop style="stop-color:#000000;stop-opacity:1;" offset="0" id="stop3220"/>
      <stop id="stop3226" offset="0.28378379" style="stop-color:#a00707;stop-opacity:1;"/>
      <stop style="stop-color:#e0aa5f;stop-opacity:1;" offset="0.75" id="stop3228"/>
      <stop style="stop-color:#00a0ff;stop-opacity:1;" offset="1" id="stop3222"/>
    </linearGradient>
    <linearGradient inkscape:collect="always" xlink:href="#linearGradient3218" id="linearGradient3236" x1="127.68519" y1="136.0238" x2="127.68519" y2="-139.95522" gradientUnits="userSpaceOnUse" spreadMethod="reflect"/>
    <linearGradient inkscape:collect="always" xlink:href="#linearGradient3218" id="linearGradient3261" gradientUnits="userSpaceOnUse" spreadMethod="reflect" x1="127.68519" y1="136.0238" x2="127.68519" y2="-143.1274" gradientTransform="matrix(0.9857547,0,0,-0.9857547,60.874857,199.58836)"/>
    <linearGradient inkscape:collect="always" xlink:href="#linearGradient3299" id="linearGradient3305" x1="-1.46875" y1="133.32812" x2="3.7428901" y2="50.984211" gradientUnits="userSpaceOnUse" spreadMethod="reflect"/>
    <linearGradient inkscape:collect="always" xlink:href="#linearGradient3299" id="linearGradient3309" gradientUnits="userSpaceOnUse" spreadMethod="reflect" x1="-1.46875" y1="133.32812" x2="-1.46875" y2="30.13765" gradientTransform="matrix(-1,0,0,1,377.0625,0)"/>
    <linearGradient inkscape:collect="always" xlink:href="#linearGradient3316" id="linearGradient3322" x1="46.624504" y1="62.275215" x2="157.19429" y2="-115.96288" gradientUnits="userSpaceOnUse" spreadMethod="reflect"/>
    <linearGradient inkscape:collect="always" xlink:href="#linearGradient3324" id="linearGradient3330" x1="192.168" y1="131.5" x2="402.27429" y2="-79.050262" gradientUnits="userSpaceOnUse" spreadMethod="reflect" gradientTransform="translate(105.08956,160.33295)"/>
    <linearGradient inkscape:collect="always" xlink:href="#linearGradient3336" id="linearGradient3334" gradientUnits="userSpaceOnUse" spreadMethod="pad" x1="107.51743" y1="209.67459" x2="210.48592" y2="101.27248" gradientTransform="translate(105.08956,160.33295)"/>
    <linearGradient inkscape:collect="always" xlink:href="#linearGradient3336" id="linearGradient3366" gradientUnits="userSpaceOnUse" spreadMethod="pad" x1="43.364254" y1="276.8295" x2="170.15897" y2="147.41992" gradientTransform="matrix(-0.9999752,-7.0392099e-3,7.0392099e-3,-0.9999752,477.62803,424.64415)"/>
  </defs>
  <sodipodi:namedview inkscape:window-height="978" inkscape:window-width="1265" inkscape:pageshadow="2" inkscape:pageopacity="0.0" guidetolerance="10.0" gridtolerance="10.0" objecttolerance="10.0" borderopacity="1.0" bordercolor="#666666" pagecolor="#ffffff" id="base" inkscape:zoom="0.95939086" inkscape:cx="103.71164" inkscape:cy="577.9709" inkscape:window-x="0" inkscape:window-y="22" inkscape:current-layer="svg2"/>
  <path sodipodi:type="arc" style="opacity:1;fill:#ffffff;fill-opacity:0.36538463;fill-rule:nonzero;stroke:#afafaf;stroke-opacity:1" id="path2243" sodipodi:cx="127.68519" sodipodi:cy="136.0238" sodipodi:rx="291.33069" sodipodi:ry="291.33069" d="M 419.01588 136.0238 A 291.33069 291.33069 0 1 1  -163.6455,136.0238 A 291.33069 291.33069 0 1 1  419.01588 136.0238 z" transform="translate(164.1455,155.80688)"/>
  <path style="opacity:1;fill:url(#linearGradient3330);fill-opacity:1;fill-rule:nonzero;stroke:#000000;stroke-width:2.66199994;stroke-miterlimit:4;stroke-dasharray:none;stroke-opacity:1" d="M 291.83956,4.6454493 C 133.31587,4.6454493 4.6520572,133.30926 4.6520572,291.83295 C 4.6520572,450.35664 133.31587,579.02044 291.83956,579.02045 C 450.36325,579.02045 578.99581,450.35664 578.99581,291.83295 C 578.99581,133.30926 450.36325,4.6454593 291.83956,4.6454493 z M 291.83956,196.70795 C 344.3533,196.70795 386.96456,239.3192 386.96456,291.83295 C 386.96456,344.34669 344.35331,386.95795 291.83956,386.95795 C 239.32581,386.95795 196.68331,344.3467 196.68331,291.83295 C 196.6833,239.3192 239.32581,196.70795 291.83956,196.70795 z " id="path3216"/>
  <circle cx="98" cy="98" r="98" id="circle4" sodipodi:cx="98" sodipodi:cy="98" sodipodi:rx="98" sodipodi:ry="98" style="fill:#ff0000" transform="matrix(0.843119,0,0,0.843119,209.20503,209.20503)"/>
  <circle cx="98" cy="98" r="78" id="circle6" sodipodi:cx="98" sodipodi:cy="98" sodipodi:rx="78" sodipodi:ry="78" style="fill:#ffffff" transform="matrix(0.843119,0,0,0.843119,209.20503,209.20503)"/>
  <circle cx="98" cy="98" r="55" id="circle8" sodipodi:cx="98" sodipodi:cy="98" sodipodi:rx="55" sodipodi:ry="55" style="fill:#ff0000" transform="matrix(0.843119,0,0,0.843119,209.20503,209.20503)"/>
  <circle style="fill:#ffffff" sodipodi:ry="30" sodipodi:rx="30" sodipodi:cy="98" sodipodi:cx="98" cx="98" cy="98" r="30" id="circle10" transform="matrix(0.843119,0,0,0.843119,209.20503,209.20503)"/>
  <rect style="fill:#ffffff" x="312.90866" y="280.87015" width="26.136688" height="21.077974" id="rect12"/>
  <path id="path3332" d="M 291.83956,4.6454493 C 133.31587,4.6454493 4.6520572,133.30926 4.6520572,291.83295 C 4.6520572,450.35664 133.31587,579.02044 291.83956,579.02045 C 450.36325,579.02045 578.99581,450.35664 578.99581,291.83295 C 578.99581,133.30926 450.36325,4.6454593 291.83956,4.6454493 z M 291.83956,196.70795 C 344.3533,196.70795 386.96456,239.3192 386.96456,291.83295 C 386.96456,344.34669 344.35331,386.95795 291.83956,386.95795 C 239.32581,386.95795 196.68331,344.3467 196.68331,291.83295 C 196.6833,239.3192 239.32581,196.70795 291.83956,196.70795 z " style="opacity:1;fill:url(#linearGradient3334);fill-opacity:1;fill-rule:nonzero;stroke:none;stroke-width:2.66199994;stroke-miterlimit:4;stroke-dasharray:none;stroke-opacity:1"/>
  <path style="opacity:1;fill:url(#linearGradient3366);fill-opacity:1;fill-rule:nonzero;stroke:none;stroke-width:2.66199994;stroke-miterlimit:4;stroke-dasharray:none;stroke-opacity:1" d="M 289.78674,579.01322 C 448.3065,580.12911 577.87281,452.37418 578.9887,293.85441 C 580.10458,135.33465 452.34965,5.7683493 293.82988,4.6524593 C 135.31012,3.5365693 5.7750532,131.29172 4.6591672,289.81149 C 3.5432872,448.33125 131.26697,577.89733 289.78674,579.01322 z M 291.13871,386.95548 C 238.62627,386.58583 196.31601,343.67568 196.68566,291.16324 C 197.05532,238.6508 239.96547,196.34054 292.47792,196.7102 C 344.99036,197.07985 387.33186,239.99022 386.9622,292.50266 C 386.59255,345.01511 343.65115,387.32514 291.13871,386.95548 z " id="path3364"/>
  <path style="fill:#000000" d="M 291.99581,192.70795 C 237.1806,192.70795 192.68331,237.17399 192.68331,291.9892 C 192.68331,346.80441 237.1806,391.30171 291.99581,391.3017 C 346.81102,391.3017 391.30831,346.8044 391.30831,291.9892 C 391.30831,237.17399 346.81101,192.70795 291.99581,192.70795 z M 291.99581,196.8642 C 344.50955,196.8642 387.12081,239.47545 387.12081,291.9892 C 387.12081,344.50294 344.50956,387.14545 291.99581,387.14545 C 239.48206,387.14546 196.87081,344.50295 196.87081,291.9892 C 196.87081,239.47545 239.48206,196.8642 291.99581,196.8642 z " id="circle3264"/>
</svg>